<svg width="800" height="600" xmlns="http://www.w3.org/2000/svg">

 <g>
  <title>background</title>
  <rect x="-1" y="-1" width="802" height="602" id="canvas_background" fill="none"/>
 </g>
 <g>
  <title>Layer 1</title>
  <path fill="#fdf3fa" id="hero_svg_bg" class="cls-1" d="m977.66521,-160.73017c44.48297,122.71871 2.1328,292.56743 -54.35134,441.35837c-56.03054,148.02397 -124.52047,275.33812 -218.3084,302.03523c-94.40663,26.13986 -212.43542,-47.98598 -333.19605,-44.57641c-121.2096,4.17868 -243.916,87.01049 -316.63695,51.6301c-73.17006,-34.60768 -95.73809,-186.86569 -103.44542,-320.93526c-7.09098,-133.50909 0.67911,-248.83196 25.88489,-360.10339c25.0384,-112.60102 67.06608,-220.38334 136.12737,-261.27522s164.26091,-13.36557 261.70253,-15.57276s195.87961,-35.27827 311.15253,-13.07398s247.20398,98.3537 291.07083,220.51332l0.00001,0z"/>
 </g>
</svg>